<svg xmlns="http://www.w3.org/2000/svg" width="430" height="430" fill="none" viewBox="0 0 430 430"><path stroke="#d2fd6e" stroke-linecap="round" stroke-linejoin="round" stroke-miterlimit="17.2" stroke-width="12" d="m88.5 154.1-19.7-33.3 100.5-64.6 59.2 97.9m-31.6-52.3 47.1-31 49.5 83.3m-18.4-30.9 48-31 35.3 61.9m-31.3 72-25.9 109.5m-30-90.9-10.9 90.9m-42.9-78.7-.4 78.8M107.1 226.2l26.1 109.6m30-89.3 11.1 88.4m42.7-133 .3-144"/><path stroke="#d2fd6e" stroke-linecap="round" stroke-linejoin="round" stroke-miterlimit="17.2" stroke-width="12" d="M399.9 167v17.2c0 7.1-5.8 12.9-12.9 12.9H43c-7.1 0-12.9-5.8-12.9-12.9V167c0-7.1 5.8-12.9 12.9-12.9h344c7.1 0 12.9 5.8 12.9 12.9M45.2 198.2l46.3 155c3.4 11.4 15.8 20.6 27.7 20.6h193.3c11.9 0 24.2-9.3 27.5-20.7l44.9-156"/><path fill="#d2fd6e" d="M215.8 225.1c9.776 0 17.7-7.343 17.7-16.4s-7.924-16.4-17.7-16.4-17.7 7.343-17.7 16.4 7.925 16.4 17.7 16.4"/></svg>