<svg xmlns="http://www.w3.org/2000/svg" width="430" height="430" fill="none" viewBox="0 0 430 430"><g stroke="#d2fd6e" stroke-linejoin="round" stroke-width="12"><path stroke-linecap="round" d="M270 145h63.469a20 20 0 0 1 17.308 9.979l46.532 80.372A20 20 0 0 1 400 245.372V315h-30m-100 0h35m-165 0h130V85H35v230h40"/><path d="M370 315c0 17.949-14.551 32.5-32.5 32.5S305 332.949 305 315s14.551-32.5 32.5-32.5S370 297.051 370 315Z"/><circle cx="107.5" cy="315" r="32.5"/><path stroke-linecap="round" d="M365.263 180H315v60h84.265"/></g></svg>