<svg xmlns="http://www.w3.org/2000/svg" viewBox="0 0 64 64">
  <defs>
    <linearGradient id="bg" x1="8" x2="56" y1="6" y2="58" gradientUnits="userSpaceOnUse">
      <stop offset="0" stop-color="#1d1d1d" />
      <stop offset="1" stop-color="#0b0b0b" />
    </linearGradient>
    <linearGradient id="drink" x1="20" x2="44" y1="20" y2="46" gradientUnits="userSpaceOnUse">
      <stop offset="0" stop-color="#d2fd6e" />
      <stop offset="1" stop-color="#7fbf15" />
    </linearGradient>
  </defs>

  <rect width="64" height="64" rx="16" fill="url(#bg)" />
  <path d="M20 14h24c1.7 0 3 1.5 2.8 3.2l-2.4 19.4c-.6 4.9-4.8 8.6-9.8 8.6h-5.2c-5 0-9.2-3.7-9.8-8.6l-2.4-19.4c-.2-1.7 1.1-3.2 2.8-3.2Z" fill="#f3f3f3" opacity=".92"/>
  <path d="M22 21h20l-1.7 13.9a6.7 6.7 0 0 1-6.6 5.9h-3.4a6.7 6.7 0 0 1-6.6-5.9L22 21Z" fill="url(#drink)"/>
  <path d="M26 10.5c3.5 1.3 4.7 4.7 8.6 4.7 3.2 0 4.7-2 6.3-3.5" fill="none" stroke="#d2fd6e" stroke-linecap="round" stroke-width="3"/>
  <circle cx="28" cy="28" r="1.8" fill="#ffffff" opacity=".45"/>
  <circle cx="35.5" cy="31.5" r="1.4" fill="#ffffff" opacity=".35"/>
  <path d="M29 45h6v5h5v3H24v-3h5Z" fill="#f3f3f3" opacity=".92"/>
  <path d="M46 34h4.2a4.8 4.8 0 0 0 0-9.6H45" fill="none" stroke="#f3f3f3" stroke-linecap="round" stroke-linejoin="round" stroke-width="3" opacity=".92"/>
  <rect x="40" y="40" width="16" height="16" rx="8" fill="#d2fd6e"/>
  <path d="M45 48h6M48 45v6" stroke="#0b0b0b" stroke-linecap="round" stroke-width="2.8"/>
</svg>
