<svg xmlns="http://www.w3.org/2000/svg" viewBox="0 0 512 512">
  <rect width="512" height="512" rx="128" fill="#0e0e0e" />
  <circle cx="384" cy="132" r="92" fill="#d2fd6e" opacity="0.12" />
  <path fill="#d2fd6e" d="M171 137h109c25 0 45 20 45 45v92c0 25-20 45-45 45H161l-42 52c-8 10-24 4-24-9V182c0-25 20-45 45-45h31Z"/>
  <path fill="#486100" d="M206 202h67c8 0 14 6 14 14s-6 14-14 14h-67c-8 0-14-6-14-14s6-14 14-14Zm0 54h104c8 0 14 6 14 14s-6 14-14 14H206c-8 0-14-6-14-14s6-14 14-14Z"/>
  <circle cx="175" cy="401" r="34" fill="#d2fd6e" />
  <circle cx="333" cy="401" r="34" fill="#d2fd6e" />
  <path fill="#ffffff" d="M338 329h-44l-21-98h-63l-13 40h58c17 0 31 11 35 27l7 31h28c8 0 14 6 14 14s-6 14-14 14h-39c-14 0-26-10-29-24l-7-31h-70c-9 0-16-9-13-18l22-67c2-6 8-10 14-10h86c7 0 13 5 14 11l21 97h34c8 0 14 6 14 14s-6 14-14 14Z"/>
</svg>
